<mxfile host="app.diagrams.net" modified="2024-05-14T20:56:19.965Z" agent="Mozilla/5.0 (Windows NT 10.0; Win64; x64) AppleWebKit/537.36 (KHTML, like Gecko) Chrome/124.0.0.0 Safari/537.36 Edg/124.0.0.0" etag="ULNGi6lUNNSdo4EGAX3N" version="24.4.0" type="github">
  <diagram name="Page-1" id="FyrMBTrrY9ovKlzqzNAM">
    <mxGraphModel dx="1461" dy="853" grid="1" gridSize="10" guides="1" tooltips="1" connect="1" arrows="1" fold="1" page="1" pageScale="1" pageWidth="827" pageHeight="1169" math="0" shadow="0">
      <root>
        <mxCell id="0" />
        <mxCell id="1" parent="0" />
        <mxCell id="cPiBzClgTJd5VOTmtECA-1" value="Image with dimension W * H" style="rounded=0;whiteSpace=wrap;html=1;" vertex="1" parent="1">
          <mxGeometry x="240" y="280" width="240" height="160" as="geometry" />
        </mxCell>
        <mxCell id="cPiBzClgTJd5VOTmtECA-2" value="" style="endArrow=classic;html=1;rounded=0;strokeWidth=3;" edge="1" parent="1">
          <mxGeometry width="50" height="50" relative="1" as="geometry">
            <mxPoint x="490" y="360" as="sourcePoint" />
            <mxPoint x="550" y="360" as="targetPoint" />
          </mxGeometry>
        </mxCell>
        <mxCell id="cPiBzClgTJd5VOTmtECA-3" value="Local image with dimension W * h" style="rounded=0;whiteSpace=wrap;html=1;" vertex="1" parent="1">
          <mxGeometry x="560" y="280" width="240" height="30" as="geometry" />
        </mxCell>
        <mxCell id="cPiBzClgTJd5VOTmtECA-4" value="Local image with dimension W * h" style="rounded=0;whiteSpace=wrap;html=1;" vertex="1" parent="1">
          <mxGeometry x="560" y="320" width="240" height="30" as="geometry" />
        </mxCell>
        <mxCell id="cPiBzClgTJd5VOTmtECA-5" value="Local image with dimension W * h" style="rounded=0;whiteSpace=wrap;html=1;" vertex="1" parent="1">
          <mxGeometry x="560" y="410" width="240" height="30" as="geometry" />
        </mxCell>
        <mxCell id="cPiBzClgTJd5VOTmtECA-6" value="" style="endArrow=none;dashed=1;html=1;dashPattern=1 3;strokeWidth=2;rounded=0;" edge="1" parent="1">
          <mxGeometry width="50" height="50" relative="1" as="geometry">
            <mxPoint x="680" y="360" as="sourcePoint" />
            <mxPoint x="680" y="400" as="targetPoint" />
          </mxGeometry>
        </mxCell>
        <mxCell id="cPiBzClgTJd5VOTmtECA-7" value="P local image in total" style="text;html=1;align=center;verticalAlign=middle;resizable=0;points=[];autosize=1;strokeColor=none;fillColor=none;" vertex="1" parent="1">
          <mxGeometry x="680" y="360" width="130" height="30" as="geometry" />
        </mxCell>
      </root>
    </mxGraphModel>
  </diagram>
</mxfile>
